<svg xmlns="http://www.w3.org/2000/svg" width="80" height="80" viewBox="0 0 80 80"><g transform="translate(-1452 -153)"><rect width="80" height="80" transform="translate(1452 153)" fill="#fff" opacity="0"/><g transform="translate(1452 154)"><path d="M14.167,0H65.833A14.155,14.155,0,0,1,80,14.167V63.833A14.155,14.155,0,0,1,65.833,78H14.167A14.155,14.155,0,0,1,0,63.833V14.167A14.155,14.155,0,0,1,14.167,0Z" fill="#470137"/><g transform="translate(11.654 17.095)"><path d="M65.374,54.69l-10,16.5,10.667,17.5a.574.574,0,0,1,.067.4c-.033.133-.167.033-.367.067H58.107c-.533,0-.9-.033-1.133-.367-.7-1.4-1.433-2.767-2.133-4.167-.7-1.367-1.467-2.767-2.267-4.2s-1.6-2.867-2.4-4.333h-.067c-.7,1.433-1.467,2.867-2.233,4.3s-1.533,2.867-2.267,4.267c-.767,1.4-1.533,2.833-2.3,4.2-.133.333-.4.367-.767.367H35.207c-.133,0-.233.067-.233-.1a.463.463,0,0,1,.067-.367l10.367-17-10.1-17.1c-.1-.133-.133-.267-.067-.333a.386.386,0,0,1,.333-.133h7.567a1.967,1.967,0,0,1,.467.067.945.945,0,0,1,.333.3c.633,1.433,1.367,2.867,2.133,4.3.8,1.433,1.567,2.833,2.4,4.233.8,1.4,1.533,2.8,2.233,4.233h.067c.7-1.467,1.433-2.9,2.167-4.3s1.5-2.8,2.267-4.2,1.5-2.833,2.233-4.2a.567.567,0,0,1,.2-.333.636.636,0,0,1,.433-.067h7.033a.307.307,0,0,1,.367.233C65.507,54.49,65.441,54.623,65.374,54.69Zm15.4,35.167a16.572,16.572,0,0,1-7.167-1.5,11.621,11.621,0,0,1-5.033-4.533,14.423,14.423,0,0,1-1.833-7.6,13.69,13.69,0,0,1,1.833-7.033,13.842,13.842,0,0,1,5.3-5.167,17.051,17.051,0,0,1,8.433-1.933,5.953,5.953,0,0,1,.7.033c.3.033.633.033,1.033.067V51.656c0-.233.1-.367.333-.367h6.767a.3.3,0,0,1,.333.233v31.8c0,.6.033,1.267.067,2,.067.7.1,1.367.133,1.933a.541.541,0,0,1-.333.533,25.457,25.457,0,0,1-5.433,1.6A29.4,29.4,0,0,1,80.774,89.856Zm3.267-6.667V68.523a8.527,8.527,0,0,0-.9-.167c-.367-.033-.733-.067-1.1-.067a8.217,8.217,0,0,0-3.767.867,7.473,7.473,0,0,0-2.833,2.467,7.389,7.389,0,0,0-1.1,4.233,9.289,9.289,0,0,0,.567,3.433,6.515,6.515,0,0,0,1.5,2.367,5.759,5.759,0,0,0,2.267,1.333,8.725,8.725,0,0,0,2.767.433c.5,0,.967-.033,1.4-.067a2.915,2.915,0,0,0,1.2-.167Z" transform="translate(-34.614 -48.379)" fill="#ff61f6"/></g></g></g></svg>