<svg xmlns="http://www.w3.org/2000/svg" width="80" height="80" viewBox="0 0 80 80"><g transform="translate(-1132 -224)"><rect width="80" height="80" transform="translate(1132 224)" fill="#fff" opacity="0"/><g transform="translate(956.3 150)"><path d="M255.7,113.63c0-5.3-6.637-10.322-16.812-13.437,2.348-10.371,1.3-18.622-3.294-21.264a7.149,7.149,0,0,0-3.653-.913v3.636a3.776,3.776,0,0,1,1.859.424c2.218,1.272,3.18,6.115,2.43,12.344-.179,1.533-.473,3.147-.832,4.794a79.025,79.025,0,0,0-10.355-1.777,79.544,79.544,0,0,0-6.784-8.153c5.316-4.941,10.306-7.648,13.7-7.648V78c-4.484,0-10.355,3.2-16.29,8.74-5.936-5.512-11.806-8.675-16.29-8.675V81.7c3.375,0,8.382,2.691,13.7,7.6a77.016,77.016,0,0,0-6.735,8.137,76.146,76.146,0,0,0-10.371,1.794c-.375-1.631-.652-3.212-.848-4.729-.766-6.229.179-11.072,2.381-12.36a3.629,3.629,0,0,1,1.875-.424V78.082a7.271,7.271,0,0,0-3.685.913c-4.582,2.642-5.609,10.876-3.245,21.215C182.3,103.34,175.7,108.347,175.7,113.63c0,5.3,6.637,10.322,16.812,13.437-2.348,10.371-1.3,18.622,3.294,21.264a7.168,7.168,0,0,0,3.669.913c4.484,0,10.355-3.2,16.29-8.74,5.936,5.512,11.806,8.675,16.29,8.675a7.271,7.271,0,0,0,3.685-.913c4.582-2.642,5.609-10.876,3.245-21.215C249.1,123.936,255.7,118.913,255.7,113.63Zm-21.231-10.876c-.6,2.1-1.353,4.272-2.2,6.441-.669-1.3-1.37-2.609-2.136-3.914-.75-1.3-1.549-2.576-2.348-3.816C230.1,101.808,232.333,102.232,234.469,102.753ZM227,120.12c-1.272,2.2-2.576,4.289-3.93,6.229-2.43.212-4.892.326-7.371.326-2.462,0-4.925-.114-7.338-.31q-2.03-2.911-3.946-6.2-1.859-3.2-3.392-6.49c1.011-2.185,2.152-4.37,3.375-6.506,1.272-2.2,2.576-4.289,3.93-6.229,2.43-.212,4.892-.326,7.371-.326,2.462,0,4.925.114,7.338.31q2.03,2.911,3.946,6.2,1.859,3.2,3.392,6.49c-1.027,2.185-2.152,4.37-3.375,6.506Zm5.267-2.12c.881,2.185,1.631,4.37,2.25,6.49-2.136.522-4.386.962-6.718,1.3.8-1.256,1.6-2.544,2.348-3.865C230.9,120.625,231.6,119.3,232.268,118Zm-16.535,17.4a67.223,67.223,0,0,1-4.533-5.218c1.468.065,2.968.114,4.484.114,1.533,0,3.049-.033,4.533-.114A63.644,63.644,0,0,1,215.733,135.4Zm-12.132-9.6c-2.316-.342-4.55-.766-6.686-1.288.6-2.1,1.353-4.272,2.2-6.441.669,1.3,1.37,2.609,2.136,3.914S202.8,124.555,203.6,125.795Zm12.051-33.934a67.225,67.225,0,0,1,4.533,5.218c-1.468-.065-2.968-.114-4.484-.114-1.533,0-3.049.033-4.533.114A63.65,63.65,0,0,1,215.651,91.861Zm-12.067,9.6c-.8,1.256-1.6,2.544-2.348,3.865-.75,1.3-1.451,2.609-2.12,3.914-.881-2.185-1.631-4.37-2.25-6.49C199,102.248,201.252,101.808,203.584,101.465Zm-14.757,20.416c-5.773-2.462-9.507-5.691-9.507-8.251s3.734-5.805,9.507-8.251c1.4-.6,2.935-1.141,4.517-1.647a78.318,78.318,0,0,0,3.669,9.931,77.211,77.211,0,0,0-3.62,9.882C191.778,123.039,190.246,122.484,188.827,121.881Zm8.773,23.3c-2.218-1.272-3.18-6.115-2.43-12.344.179-1.533.473-3.147.832-4.794a79.025,79.025,0,0,0,10.355,1.777,79.545,79.545,0,0,0,6.784,8.153c-5.316,4.941-10.306,7.648-13.7,7.648a3.892,3.892,0,0,1-1.843-.44Zm38.679-12.426c.766,6.229-.179,11.072-2.381,12.36a3.629,3.629,0,0,1-1.875.424c-3.375,0-8.382-2.691-13.7-7.6a77.018,77.018,0,0,0,6.735-8.137,76.146,76.146,0,0,0,10.371-1.794A45.649,45.649,0,0,1,236.279,132.757Zm6.278-10.876c-1.4.6-2.935,1.141-4.517,1.647a78.324,78.324,0,0,0-3.669-9.931,77.213,77.213,0,0,0,3.62-9.882c1.614.506,3.147,1.06,4.582,1.663,5.773,2.462,9.507,5.691,9.507,8.251C252.064,116.19,248.329,119.435,242.557,121.881Z" fill="#61dafb"/><circle cx="7.452" cy="7.452" r="7.452" transform="translate(208.232 106.178)" fill="#61dafb"/></g></g></svg>