<svg xmlns="http://www.w3.org/2000/svg" width="80" height="80" viewBox="0 0 80 80"><g transform="translate(-1030 -119)"><g transform="translate(1030 119)"><path d="M0,0H80V80H0Z" fill="#f0db4f"/><path d="M328.926,501.865c-.586-3.65-2.966-6.715-10.015-9.574-2.449-1.125-5.179-1.931-5.992-3.787a4.131,4.131,0,0,1-.144-2.342c.525-2.122,3.057-2.783,5.065-2.175a5.572,5.572,0,0,1,3.255,3.019c3.452-2.236,3.445-2.221,5.855-3.757a14.923,14.923,0,0,0-1.932-2.586c-2.076-2.319-4.9-3.513-9.43-3.422-.783.1-1.574.205-2.357.3a10.694,10.694,0,0,0-5.673,3.346c-3.787,4.3-2.707,11.817,1.9,14.913,4.54,3.407,11.209,4.182,12.061,7.369.829,3.9-2.867,5.163-6.54,4.715-2.707-.563-4.213-1.939-5.84-4.441-3,1.734-3,1.734-6.076,3.506a13.522,13.522,0,0,0,2.722,3.7c5.795,5.878,20.3,5.589,22.9-3.308A10.985,10.985,0,0,0,328.926,501.865Zm-29.962-24.152h-7.483c0,6.464-.03,12.882-.03,19.346,0,4.114.213,7.886-.456,9.042-1.1,2.274-3.932,1.992-5.224,1.551a6.423,6.423,0,0,1-2.76-2.867,3.851,3.851,0,0,0-.426-.684q-3.046,1.859-6.084,3.726a12.025,12.025,0,0,0,4.411,5.049,14.526,14.526,0,0,0,10.692,1.316,9.448,9.448,0,0,0,6.038-4.73c1.7-3.141,1.338-6.943,1.323-11.148.038-6.859,0-13.719,0-20.6Z" transform="translate(-255.473 -440.945)" fill="#323330"/></g></g></svg>