<svg xmlns="http://www.w3.org/2000/svg" width="80" height="80" viewBox="0 0 80 80">
    <g transform="translate(-954 -352)">
        <rect width="80" height="80" transform="translate(954 352)" fill="#fff" opacity="0"/>
        <path d="M78.491,36.436,43.563,1.509a5.152,5.152,0,0,0-7.286,0L29.024,8.762l9.2,9.2a6.118,6.118,0,0,1,7.748,7.8L54.84,34.63a6.123,6.123,0,1,1-3.672,3.457L42.9,29.817V51.579a6.194,6.194,0,0,1,1.621,1.159A6.125,6.125,0,1,1,37.857,51.4V29.436A6.056,6.056,0,0,1,35.85,28.1a6.128,6.128,0,0,1-1.321-6.7l-9.07-9.071L1.509,36.274a5.154,5.154,0,0,0,0,7.288L36.439,78.49a5.152,5.152,0,0,0,7.286,0L78.491,43.725a5.155,5.155,0,0,0,0-7.289"
              transform="translate(954 352.001)" fill="#de4c36"/>
    </g>
</svg>