<svg xmlns="http://www.w3.org/2000/svg" xmlns:xlink="http://www.w3.org/1999/xlink" width="128" height="40.831" viewBox="0 0 128 40.831"><defs><filter id="a" x="0" y="0" width="128" height="40.831" filterUnits="userSpaceOnUse"><feOffset input="SourceAlpha"/><feGaussianBlur stdDeviation="3" result="b"/><feFlood flood-color="#fff" flood-opacity="0.161"/><feComposite operator="in" in2="b"/><feComposite in="SourceGraphic"/></filter></defs><g transform="matrix(1, 0, 0, 1, 0, 0)" filter="url(#a)"><path d="M9.523-12.325c5.055,0,7.975-3.061,7.975-6.543,0-2.949-1.545-4.69-4.128-5.729l-2.612-1.039c-1.853-.73-3.145-1.179-3.145-2.359,0-1.1.927-1.713,2.471-1.713a6.8,6.8,0,0,1,4.3,1.6l2.5-3.145A9.723,9.723,0,0,0,10.085-34C5.648-34,2.5-31.2,2.5-27.686a6.119,6.119,0,0,0,4.24,5.729l2.668,1.123c1.8.758,2.949,1.151,2.949,2.359,0,1.123-.871,1.825-2.724,1.825A8.308,8.308,0,0,1,4.58-18.784L1.716-15.33A11.693,11.693,0,0,0,9.523-12.325Zm18.113,0a8.083,8.083,0,0,0,5.28-1.882l-1.938-3.286a4.582,4.582,0,0,1-2.78,1.123c-1.938,0-3.4-1.685-3.4-4.353,0-2.64,1.376-4.325,3.595-4.325a3.131,3.131,0,0,1,2.022.842l2.331-3.173a6.915,6.915,0,0,0-4.662-1.713,8.084,8.084,0,0,0-8.4,8.369C19.689-15.414,23.143-12.325,27.636-12.325Zm8.032-.393h5V-23.389a3.72,3.72,0,0,1,2.752-1.432c1.264,0,1.853.618,1.853,2.836v9.267h5V-22.6c0-3.988-1.488-6.487-4.971-6.487a7.1,7.1,0,0,0-4.886,2.162l.253-2.836v-5.392h-5Zm25.724.393a10.311,10.311,0,0,0,5.7-1.825l-1.657-3a6.5,6.5,0,0,1-3.37,1.011,3.652,3.652,0,0,1-3.988-3.089h9.38a9.365,9.365,0,0,0,.225-2.162c0-4.353-2.247-7.695-6.852-7.695-3.847,0-7.582,3.2-7.582,8.369C53.248-15.414,56.786-12.325,61.392-12.325Zm-3.4-10.194a2.95,2.95,0,0,1,2.921-2.752c1.825,0,2.527,1.179,2.527,2.752Zm12.89,9.8h5V-23.389a3.754,3.754,0,0,1,2.527-1.432c1.264,0,1.853.618,1.853,2.836v9.267h5V-23.389a3.86,3.86,0,0,1,2.556-1.432c1.264,0,1.825.618,1.825,2.836v9.267h5V-22.6c0-3.988-1.516-6.487-5-6.487-2.134,0-3.623,1.236-5,2.64a4.382,4.382,0,0,0-4.381-2.64c-2.162,0-3.538,1.1-4.858,2.415h-.084L74.956-28.7H70.884Zm31.705.393a6.827,6.827,0,0,0,4.577-1.994h.14l.337,1.6h4.072v-9.071c0-5-2.331-7.3-6.459-7.3a13.288,13.288,0,0,0-6.88,2.106l1.741,3.286a8.769,8.769,0,0,1,4.184-1.4c1.629,0,2.3.758,2.415,2.05-6.234.674-8.874,2.5-8.874,5.869A4.614,4.614,0,0,0,102.589-12.325ZM104.3-16.2c-1.039,0-1.713-.449-1.713-1.376,0-1.123,1.011-2.05,4.128-2.443v2.556A3.147,3.147,0,0,1,104.3-16.2Z" transform="translate(7.28 44.16)" fill="#005bae"/></g></svg>