<svg xmlns="http://www.w3.org/2000/svg" width="80" height="80" viewBox="0 0 80 80"><g transform="translate(-1547 -150)"><rect width="80" height="80" transform="translate(1547 150)" fill="#fff" opacity="0"/><g transform="translate(1547 151)"><path d="M14.167,0H65.833A14.155,14.155,0,0,1,80,14.167V63.833A14.155,14.155,0,0,1,65.833,78H14.167A14.155,14.155,0,0,1,0,63.833V14.167A14.155,14.155,0,0,1,14.167,0Z" fill="#001e36"/><g transform="translate(18 21)"><path d="M54,94.367v-34.3c0-.233.1-.367.333-.367.567,0,1.1,0,1.867-.033.8-.033,1.633-.033,2.533-.067s1.867-.033,2.9-.067,2.033-.033,3.033-.033a19.6,19.6,0,0,1,6.867,1.033A11.9,11.9,0,0,1,76,63.267a10.613,10.613,0,0,1,2.433,3.8A12.758,12.758,0,0,1,79.2,71.4a11.917,11.917,0,0,1-2,7.1,11.42,11.42,0,0,1-5.367,4.067,21.6,21.6,0,0,1-7.5,1.133c-.8,0-1.333,0-1.667-.033s-.8-.033-1.433-.033v10.7a.415.415,0,0,1-.367.467H54.4C54.133,94.8,54,94.667,54,94.367Zm7.267-28.233v11.2c.467.033.9.067,1.3.067h1.767a12.452,12.452,0,0,0,3.833-.6A5.732,5.732,0,0,0,70.9,75.033,5.151,5.151,0,0,0,71.933,71.6a5.486,5.486,0,0,0-.767-2.967,4.834,4.834,0,0,0-2.333-1.9,9.781,9.781,0,0,0-3.933-.667c-.867,0-1.633,0-2.267.033a7.632,7.632,0,0,0-1.367.033ZM100,75.3a11.8,11.8,0,0,0-3.2-1.133,17.571,17.571,0,0,0-3.733-.433,6.711,6.711,0,0,0-2,.233,1.712,1.712,0,0,0-1.033.667,1.767,1.767,0,0,0-.267.9,1.483,1.483,0,0,0,.333.867,3.762,3.762,0,0,0,1.133.9c.767.4,1.567.767,2.367,1.1a24.144,24.144,0,0,1,5.133,2.433,7.756,7.756,0,0,1,2.633,2.767,7.2,7.2,0,0,1,.767,3.433,7.756,7.756,0,0,1-1.3,4.433A8.353,8.353,0,0,1,97.1,94.433,15.273,15.273,0,0,1,91.067,95.5a22.961,22.961,0,0,1-4.533-.433A13.446,13.446,0,0,1,83.133,94a.656.656,0,0,1-.367-.633v-5.8a.362.362,0,0,1,.133-.3.254.254,0,0,1,.3.033,14.269,14.269,0,0,0,4.133,1.633,15.518,15.518,0,0,0,3.933.5,6.362,6.362,0,0,0,2.767-.467,1.549,1.549,0,0,0,.9-1.4,1.766,1.766,0,0,0-.8-1.333,14.137,14.137,0,0,0-3.267-1.567,20.4,20.4,0,0,1-4.733-2.4A8.631,8.631,0,0,1,83.6,79.433a7.152,7.152,0,0,1-.767-3.4A7.84,7.84,0,0,1,83.967,72a8.217,8.217,0,0,1,3.5-3.067,12.926,12.926,0,0,1,5.9-1.167,28.736,28.736,0,0,1,4.133.3,11.729,11.729,0,0,1,2.867.767.586.586,0,0,1,.333.3,1.673,1.673,0,0,1,.067.4v5.433a.41.41,0,0,1-.167.333.888.888,0,0,1-.6,0Z" transform="translate(-54 -59.5)" fill="#31a8ff"/></g></g></g></svg>