<svg xmlns="http://www.w3.org/2000/svg" width="80" height="80" viewBox="0 0 80 80"><g transform="translate(-847 -337)"><rect width="80" height="80" transform="translate(847 337)" fill="#fff" opacity="0"/><g transform="translate(847 356)"><ellipse cx="40" cy="20.822" rx="40" ry="20.822" transform="translate(0 0)" fill="#8993be"/><path d="M35.945,44.6l4.384-22.192H50.465c4.383.274,6.575,2.466,6.575,6.3,0,6.575-5.205,10.411-9.863,10.137H42.247l-1.1,5.753Zm7.4-9.863,1.37-8.219h3.562c1.918,0,3.288.822,3.288,2.466-.274,4.658-2.466,5.48-4.931,5.754H43.343Zm12.68,4.109,4.383-22.192h5.206l-1.1,5.753h4.931c4.384.274,6.027,2.466,5.48,5.206L73.008,38.85H67.529l1.918-10.137c.274-1.37.274-2.192-1.644-2.192h-4.11L61.228,38.85ZM72.658,44.6l4.383-22.192H87.178c4.384.274,6.576,2.466,6.576,6.3,0,6.575-5.206,10.411-9.863,10.137H78.959l-1.1,5.753Zm7.4-9.863,1.37-8.219h3.562c1.918,0,3.288.822,3.288,2.466-.274,4.658-2.466,5.48-4.931,5.754H80.055Z" transform="translate(-24.712 -11.452)" fill="#232531" fill-rule="evenodd"/></g></g></svg>