<svg xmlns="http://www.w3.org/2000/svg" width="80" height="80" viewBox="0 0 80 80">
    <g transform="translate(-1227 -224)">
        <rect width="80" height="80" transform="translate(1227 224)" fill="#fff" opacity="0"/>
        <path d="M68.752,34.675A16.482,16.482,0,0,0,61.5,36.363a14.914,14.914,0,0,1-1.625-3.75,10.373,10.373,0,0,1-.141-3.157,25.294,25.294,0,0,1,.953-3.407c-.016-.141-.172-.828-1.781-.844s-3,.313-3.157.734a17.947,17.947,0,0,0-.672,2.391C54.8,29.8,51.86,35,50.188,37.738a9.6,9.6,0,0,1-1.11-2.75,10.372,10.372,0,0,1-.14-3.156,25.306,25.306,0,0,1,.953-3.407c-.016-.141-.172-.828-1.781-.844s-3,.313-3.157.734-.328,1.422-.672,2.391c-.328.969-4.235,9.657-5.251,11.923-.516,1.156-.969,2.078-1.3,2.7s-.016.047-.047.109c-.281.531-.438.828-.438.828v.016c-.219.391-.453.766-.563.766a5.211,5.211,0,0,1,.031-2.484c.578-3.016,1.985-7.719,1.969-7.891,0-.078.265-.906-.906-1.328a1.424,1.424,0,0,0-1.641.281c-.094,0-.172.25-.172.25s1.266-5.3-2.422-5.3c-2.313,0-5.5,2.516-7.079,4.813-1,.547-3.125,1.7-5.375,2.938-.859.469-1.75.969-2.594,1.422l-.172-.188C13.857,34.8,5.59,31.424,5.934,25.018c.125-2.328.938-8.469,15.877-15.908,12.235-6.094,22.033-4.422,23.736-.7C47.969,13.72,40.312,23.6,27.592,25.018c-4.844.547-7.391-1.328-8.032-2.031-.672-.734-.766-.766-1.016-.625-.406.219-.156.875,0,1.266a7.543,7.543,0,0,0,4.594,3.61c2.328.766,8.016,1.188,14.892-1.469,7.7-2.985,13.72-11.267,11.954-18.189C48.188.531,36.5-1.782,25.452,2.141c-6.579,2.344-13.7,6-18.83,10.8C.527,18.626-.441,23.6-.035,25.658c1.422,7.36,11.564,12.157,15.626,15.7-.2.109-.391.219-.563.313C13,42.675,5.262,46.723,3.325,51c-2.188,4.844.344,8.329,2.031,8.8,5.219,1.453,10.563-1.156,13.454-5.454,2.875-4.3,2.531-9.876,1.2-12.423l-.047-.094,1.594-.938c1.031-.609,2.047-1.172,2.938-1.657a19.456,19.456,0,0,0-1.047,5.313c-.219,2.75.906,6.313,2.391,7.719a2.645,2.645,0,0,0,1.922.625c1.719,0,2.5-1.422,3.36-3.125,1.063-2.078,2-4.485,2-4.485S31.952,51.8,35.155,51.8c1.172,0,2.344-1.516,2.875-2.3v.016s.031-.047.094-.156.128-.2.188-.3v-.031c.469-.813,1.516-2.672,3.078-5.75,2.016-3.969,3.953-8.938,3.953-8.938a28.522,28.522,0,0,0,.766,3.219,30.8,30.8,0,0,0,1.672,3.75c-.469.656-.75,1.031-.75,1.031l.016.016c-.375.5-.8,1.031-1.234,1.563a45.416,45.416,0,0,0-3.75,4.7,1.288,1.288,0,0,0,.344,1.719,3.128,3.128,0,0,0,1.969.313,8.771,8.771,0,0,0,2.938-.672,10.174,10.174,0,0,0,2.531-1.328,5.636,5.636,0,0,0,2.422-4.985,10.023,10.023,0,0,0-.922-3.516c.141-.2.281-.406.422-.625a65.963,65.963,0,0,0,4.375-7.579,28.523,28.523,0,0,0,.766,3.219,22.568,22.568,0,0,0,1.422,3.219,13.892,13.892,0,0,0-4.266,5.516c-.922,2.656-.2,3.86,1.156,4.141a4.16,4.16,0,0,0,2.141-.438,9.7,9.7,0,0,0,2.7-1.391c1.563-1.156,3.063-2.766,2.985-4.938a9.466,9.466,0,0,0-.672-2.922,15.224,15.224,0,0,1,7.751-.891c6.954.813,8.329,5.157,8.063,6.969a4.668,4.668,0,0,1-2.2,3.125c-.484.3-.641.406-.594.625.063.328.281.313.7.25a5.409,5.409,0,0,0,3.782-4.828c.188-4.3-3.891-8.986-11.126-8.939Zm-53.63,18.08c-2.3,2.516-5.532,3.469-6.907,2.656-1.485-.859-.906-4.563,1.922-7.235a36.768,36.768,0,0,1,5.422-4.047c.328-.2.828-.5,1.422-.859a1.667,1.667,0,0,1,.156-.094c.109-.063.234-.141.359-.219a9.968,9.968,0,0,1-2.375,9.8Zm16.8-11.423c-.8,1.953-2.485,6.969-3.5,6.688-.875-.234-1.406-4.032-.172-7.782a17.373,17.373,0,0,1,2.735-5.016c1.266-1.406,2.641-1.875,2.985-1.3C34.374,34.675,32.421,40.113,31.921,41.332Zm13.861,6.626c-.344.172-.656.3-.8.2-.109-.063.14-.3.14-.3s1.735-1.86,2.422-2.719c.391-.5.859-1.078,1.359-1.735V43.6c0,2.25-2.156,3.75-3.125,4.36ZM56.47,45.519c-.25-.188-.219-.766.625-2.578a9.662,9.662,0,0,1,2.375-3.063,3.865,3.865,0,0,1,.234,1.344A4.4,4.4,0,0,1,56.47,45.519Z"
              transform="translate(1227.116 233.759)" fill="#cf649a"/>
    </g>
</svg>